<?xml version="1.0" encoding="utf-8"?>
<!-- Svg Vector Icons : http://www.onlinewebfonts.com/icon -->
<!DOCTYPE svg PUBLIC "-//W3C//DTD SVG 1.1//EN" "http://www.w3.org/Graphics/SVG/1.1/DTD/svg11.dtd">
<svg version="1.1" xmlns="http://www.w3.org/2000/svg" xmlns:xlink="http://www.w3.org/1999/xlink" x="0px" y="0px" viewBox="0 0 1000 1000" enable-background="new 0 0 1000 1000" xml:space="preserve">
<metadata> Svg Vector Icons : http://www.onlinewebfonts.com/icon </metadata>
<g><g><g><path d="M500.3,409.4c-10.8,0-18.2,7.2-18.2,18.2V609c0,10.8,7.2,18.2,18.2,18.2c11,0,18.2-7.2,18.2-18.2V427.6C518.3,416.6,511.1,409.4,500.3,409.4z"/><path d="M500.3,663.3c-10.8,0-18.2,7.2-18.2,18.2c0,11,7.2,18.2,18.2,18.2c11,0,18.2-7.2,18.2-18.2C518.5,670.5,511.1,663.3,500.3,663.3z"/><path d="M881.4,460c0-109-90.7-196.1-199.7-196.1c-39.9,0-72.5,10.8-105.3,29c-47.1-61.7-119.8-101.5-203.3-101.5C231.5,191.5,119,304,119,445.6c0,3.6,0,10.8,0,14.4c-65.3,29-109,90.7-109,167c0,101.5,79.9,181.5,181.5,181.5h617.1c101.5,0,181.5-79.9,181.5-181.5C990.4,550.8,946.7,489.1,881.4,460z M808.7,772.3H191.7c-79.9,0-145.2-65.3-145.2-145.2c0-68.9,47.3-127,112.6-141.6c-3.6-14.6-3.6-25.4-3.6-39.9c0-119.8,97.9-217.9,217.9-217.9c83.5,0,159.6,47.3,196.1,119.8c29-29,68.9-47.3,112.6-47.3c90.7,0,163.4,72.5,163.4,163.4c0,7.2,0,14.4,0,21.8c61.7,14.4,109,72.5,109,141.6C953.9,707,888.6,772.3,808.7,772.3z"/></g></g><g></g><g></g><g></g><g></g><g></g><g></g><g></g><g></g><g></g><g></g><g></g><g></g><g></g><g></g><g></g></g>
</svg>